<mxfile host="www.draw.io" modified="2019-11-30T19:11:26.906Z" agent="Mozilla/5.0 (Windows NT 10.0; Win64; x64; rv:70.0) Gecko/20100101 Firefox/70.0" etag="4L-XCMUhVxmO1xx7l8Qq" version="12.3.3" type="github" pages="1">
  <diagram name="Page-1" id="13e1069c-82ec-6db2-03f1-153e76fe0fe0">
    <mxGraphModel dx="2563" dy="826" grid="1" gridSize="10" guides="1" tooltips="1" connect="1" arrows="1" fold="1" page="1" pageScale="1" pageWidth="1100" pageHeight="850" background="#ffffff" math="0" shadow="0">
      <root>
        <mxCell id="0"/>
        <mxCell id="1" parent="0"/>
        <mxCell id="7baba1c4bc27f4b0-4" value="&lt;div&gt;findOwnerPlate&lt;div&gt;Service&lt;br&gt;&lt;/div&gt;&lt;/div&gt;" style="shape=umlLifeline;perimeter=lifelinePerimeter;whiteSpace=wrap;html=1;container=1;collapsible=0;recursiveResize=0;outlineConnect=0;rounded=1;shadow=0;comic=0;labelBackgroundColor=none;strokeWidth=1;fontFamily=Verdana;fontSize=12;align=center;" parent="1" vertex="1">
          <mxGeometry x="800" y="80" width="100" height="580" as="geometry"/>
        </mxCell>
        <mxCell id="7baba1c4bc27f4b0-37" value="" style="html=1;points=[];perimeter=orthogonalPerimeter;rounded=0;shadow=0;comic=0;labelBackgroundColor=none;strokeWidth=1;fontFamily=Verdana;fontSize=12;align=center;" parent="7baba1c4bc27f4b0-4" vertex="1">
          <mxGeometry x="45" y="185" width="10" height="75" as="geometry"/>
        </mxCell>
        <mxCell id="7baba1c4bc27f4b0-2" value="Customer Control Activity" style="shape=umlLifeline;perimeter=lifelinePerimeter;whiteSpace=wrap;html=1;container=1;collapsible=0;recursiveResize=0;outlineConnect=0;rounded=1;shadow=0;comic=0;labelBackgroundColor=none;strokeWidth=1;fontFamily=Verdana;fontSize=12;align=center;" parent="1" vertex="1">
          <mxGeometry x="450" y="80" width="100" height="570" as="geometry"/>
        </mxCell>
        <mxCell id="7baba1c4bc27f4b0-10" value="" style="html=1;points=[];perimeter=orthogonalPerimeter;rounded=0;shadow=0;comic=0;labelBackgroundColor=none;strokeWidth=1;fontFamily=Verdana;fontSize=12;align=center;" parent="7baba1c4bc27f4b0-2" vertex="1">
          <mxGeometry x="45" y="91" width="10" height="20" as="geometry"/>
        </mxCell>
        <mxCell id="7baba1c4bc27f4b0-3" value="Ticket Manager" style="shape=umlLifeline;perimeter=lifelinePerimeter;whiteSpace=wrap;html=1;container=1;collapsible=0;recursiveResize=0;outlineConnect=0;rounded=1;shadow=0;comic=0;labelBackgroundColor=none;strokeWidth=1;fontFamily=Verdana;fontSize=12;align=center;" parent="1" vertex="1">
          <mxGeometry x="620" y="80" width="100" height="580" as="geometry"/>
        </mxCell>
        <mxCell id="7baba1c4bc27f4b0-13" value="" style="html=1;points=[];perimeter=orthogonalPerimeter;rounded=0;shadow=0;comic=0;labelBackgroundColor=none;strokeWidth=1;fontFamily=Verdana;fontSize=12;align=center;" parent="7baba1c4bc27f4b0-3" vertex="1">
          <mxGeometry x="45" y="100" width="10" height="350" as="geometry"/>
        </mxCell>
        <mxCell id="4f0MlS8uqhy01Tst4_fT-19" value="" style="html=1;verticalAlign=bottom;endArrow=block;labelBackgroundColor=none;fontFamily=Verdana;fontSize=12;elbow=vertical;edgeStyle=orthogonalEdgeStyle;curved=1;" edge="1" parent="7baba1c4bc27f4b0-3">
          <mxGeometry x="0.2644" y="-40" relative="1" as="geometry">
            <mxPoint x="60.333333333333485" y="284.16666666666674" as="sourcePoint"/>
            <mxPoint x="60.333333333333485" y="324.16666666666674" as="targetPoint"/>
            <Array as="points">
              <mxPoint x="80" y="284.5"/>
              <mxPoint x="80" y="323.5"/>
            </Array>
            <mxPoint x="35" y="21" as="offset"/>
          </mxGeometry>
        </mxCell>
        <mxCell id="4f0MlS8uqhy01Tst4_fT-20" value="" style="html=1;points=[];perimeter=orthogonalPerimeter;rounded=0;shadow=0;comic=0;labelBackgroundColor=none;strokeWidth=1;fontFamily=Verdana;fontSize=12;align=center;" vertex="1" parent="7baba1c4bc27f4b0-3">
          <mxGeometry x="50" y="297.5" width="10" height="40" as="geometry"/>
        </mxCell>
        <mxCell id="4f0MlS8uqhy01Tst4_fT-21" value="attachToTicketDetails(plate, data)" style="text;html=1;align=center;verticalAlign=middle;resizable=0;points=[];;autosize=1;labelBackgroundColor=#ffffff;" vertex="1" parent="7baba1c4bc27f4b0-3">
          <mxGeometry x="74" y="294.5" width="190" height="20" as="geometry"/>
        </mxCell>
        <mxCell id="4f0MlS8uqhy01Tst4_fT-35" value="" style="html=1;points=[];perimeter=orthogonalPerimeter;rounded=0;shadow=0;comic=0;labelBackgroundColor=none;strokeWidth=1;fontFamily=Verdana;fontSize=12;align=center;" vertex="1" parent="7baba1c4bc27f4b0-3">
          <mxGeometry x="45" y="502" width="10" height="18" as="geometry"/>
        </mxCell>
        <mxCell id="7baba1c4bc27f4b0-5" value="Statistic Manager" style="shape=umlLifeline;perimeter=lifelinePerimeter;whiteSpace=wrap;html=1;container=1;collapsible=0;recursiveResize=0;outlineConnect=0;rounded=1;shadow=0;comic=0;labelBackgroundColor=none;strokeWidth=1;fontFamily=Verdana;fontSize=12;align=center;" parent="1" vertex="1">
          <mxGeometry x="1140" y="80" width="100" height="580" as="geometry"/>
        </mxCell>
        <mxCell id="4f0MlS8uqhy01Tst4_fT-28" value="" style="html=1;points=[];perimeter=orthogonalPerimeter;rounded=0;shadow=0;comic=0;labelBackgroundColor=none;strokeWidth=1;fontFamily=Verdana;fontSize=12;align=center;" vertex="1" parent="7baba1c4bc27f4b0-5">
          <mxGeometry x="45" y="426" width="10" height="44" as="geometry"/>
        </mxCell>
        <mxCell id="7baba1c4bc27f4b0-8" value="&lt;b&gt;AM&lt;/b&gt;: Actor" style="shape=umlLifeline;perimeter=lifelinePerimeter;whiteSpace=wrap;html=1;container=1;collapsible=0;recursiveResize=0;outlineConnect=0;rounded=1;shadow=0;comic=0;labelBackgroundColor=none;strokeWidth=1;fontFamily=Verdana;fontSize=12;align=center;" parent="1" vertex="1">
          <mxGeometry x="100" y="80" width="100" height="580" as="geometry"/>
        </mxCell>
        <mxCell id="4f0MlS8uqhy01Tst4_fT-18" value="" style="html=1;points=[];perimeter=orthogonalPerimeter;rounded=0;shadow=0;comic=0;labelBackgroundColor=none;strokeWidth=1;fontFamily=Verdana;fontSize=12;align=center;" vertex="1" parent="7baba1c4bc27f4b0-8">
          <mxGeometry x="45" y="90" width="10" height="20" as="geometry"/>
        </mxCell>
        <mxCell id="7baba1c4bc27f4b0-17" value="retriveOffenderPlate(violationID)" style="html=1;verticalAlign=bottom;endArrow=block;labelBackgroundColor=none;fontFamily=Verdana;fontSize=12;edgeStyle=elbowEdgeStyle;elbow=vertical;" parent="1" edge="1">
          <mxGeometry x="0.0067" relative="1" as="geometry">
            <mxPoint x="674.5" y="200" as="sourcePoint"/>
            <Array as="points">
              <mxPoint x="699.5" y="200"/>
            </Array>
            <mxPoint x="1020" y="200" as="targetPoint"/>
            <mxPoint as="offset"/>
          </mxGeometry>
        </mxCell>
        <mxCell id="7baba1c4bc27f4b0-21" value="sendOffenderPlate(plate)" style="html=1;verticalAlign=bottom;endArrow=open;dashed=1;endSize=8;labelBackgroundColor=none;fontFamily=Verdana;fontSize=12;edgeStyle=elbowEdgeStyle;elbow=vertical;" parent="1" edge="1">
          <mxGeometry relative="1" as="geometry">
            <mxPoint x="680" y="231" as="targetPoint"/>
            <Array as="points">
              <mxPoint x="965" y="231"/>
              <mxPoint x="995" y="231"/>
            </Array>
            <mxPoint x="1020" y="231" as="sourcePoint"/>
          </mxGeometry>
        </mxCell>
        <mxCell id="7baba1c4bc27f4b0-11" value="btnClkaddTicket()" style="html=1;verticalAlign=bottom;endArrow=block;labelBackgroundColor=none;fontFamily=Verdana;fontSize=12;edgeStyle=elbowEdgeStyle;elbow=vertical;" parent="1" edge="1">
          <mxGeometry relative="1" as="geometry">
            <mxPoint x="160" y="181" as="sourcePoint"/>
            <mxPoint x="280" y="181" as="targetPoint"/>
          </mxGeometry>
        </mxCell>
        <mxCell id="7baba1c4bc27f4b0-14" value="addTicket(violationID)" style="html=1;verticalAlign=bottom;endArrow=block;labelBackgroundColor=none;fontFamily=Verdana;fontSize=12;edgeStyle=elbowEdgeStyle;elbow=vertical;" parent="1" edge="1">
          <mxGeometry relative="1" as="geometry">
            <mxPoint x="510" y="181" as="sourcePoint"/>
            <mxPoint x="660" y="181" as="targetPoint"/>
          </mxGeometry>
        </mxCell>
        <mxCell id="7baba1c4bc27f4b0-36" value="" style="html=1;verticalAlign=bottom;endArrow=block;labelBackgroundColor=none;fontFamily=Verdana;fontSize=12;elbow=vertical;edgeStyle=orthogonalEdgeStyle;curved=1;" parent="1" edge="1">
          <mxGeometry x="0.2644" y="-40" relative="1" as="geometry">
            <mxPoint x="860" y="270" as="sourcePoint"/>
            <mxPoint x="860" y="309.5" as="targetPoint"/>
            <Array as="points">
              <mxPoint x="880" y="270"/>
              <mxPoint x="880" y="309"/>
            </Array>
            <mxPoint x="35" y="21" as="offset"/>
          </mxGeometry>
        </mxCell>
        <mxCell id="7baba1c4bc27f4b0-40" value="&lt;div&gt;Authority Member which has ForceName = &quot;Local Police&quot;has certified a violation.&lt;br&gt;&lt;/div&gt;" style="shape=note;whiteSpace=wrap;html=1;size=14;verticalAlign=top;align=left;spacingTop=-6;rounded=0;shadow=0;comic=0;labelBackgroundColor=none;strokeWidth=1;fontFamily=Verdana;fontSize=12" parent="1" vertex="1">
          <mxGeometry x="-105" y="20" width="210" height="50" as="geometry"/>
        </mxCell>
        <mxCell id="4f0MlS8uqhy01Tst4_fT-3" value="DBMS" style="shape=umlLifeline;perimeter=lifelinePerimeter;whiteSpace=wrap;html=1;container=1;collapsible=0;recursiveResize=0;outlineConnect=0;rounded=1;shadow=0;comic=0;labelBackgroundColor=none;strokeWidth=1;fontFamily=Verdana;fontSize=12;align=center;" vertex="1" parent="1">
          <mxGeometry x="980" y="80" width="100" height="580" as="geometry"/>
        </mxCell>
        <mxCell id="4f0MlS8uqhy01Tst4_fT-4" value="" style="html=1;points=[];perimeter=orthogonalPerimeter;rounded=0;shadow=0;comic=0;labelBackgroundColor=none;strokeWidth=1;fontFamily=Verdana;fontSize=12;align=center;" vertex="1" parent="4f0MlS8uqhy01Tst4_fT-3">
          <mxGeometry x="45" y="115" width="10" height="40" as="geometry"/>
        </mxCell>
        <mxCell id="4f0MlS8uqhy01Tst4_fT-25" value="" style="html=1;points=[];perimeter=orthogonalPerimeter;rounded=0;shadow=0;comic=0;labelBackgroundColor=none;strokeWidth=1;fontFamily=Verdana;fontSize=12;align=center;" vertex="1" parent="4f0MlS8uqhy01Tst4_fT-3">
          <mxGeometry x="45" y="360" width="10" height="40" as="geometry"/>
        </mxCell>
        <mxCell id="4f0MlS8uqhy01Tst4_fT-29" value="" style="html=1;points=[];perimeter=orthogonalPerimeter;rounded=0;shadow=0;comic=0;labelBackgroundColor=none;strokeWidth=1;fontFamily=Verdana;fontSize=12;align=center;" vertex="1" parent="4f0MlS8uqhy01Tst4_fT-3">
          <mxGeometry x="45" y="458" width="10" height="20" as="geometry"/>
        </mxCell>
        <mxCell id="4f0MlS8uqhy01Tst4_fT-5" value="Mobile App" style="shape=umlLifeline;perimeter=lifelinePerimeter;whiteSpace=wrap;html=1;container=1;collapsible=0;recursiveResize=0;outlineConnect=0;rounded=1;shadow=0;comic=0;labelBackgroundColor=none;strokeWidth=1;fontFamily=Verdana;fontSize=12;align=center;" vertex="1" parent="1">
          <mxGeometry x="240" y="80" width="100" height="580" as="geometry"/>
        </mxCell>
        <mxCell id="4f0MlS8uqhy01Tst4_fT-8" value="" style="endArrow=classic;html=1;" edge="1" parent="4f0MlS8uqhy01Tst4_fT-5">
          <mxGeometry width="50" height="50" relative="1" as="geometry">
            <mxPoint x="60" y="101" as="sourcePoint"/>
            <mxPoint x="250" y="101" as="targetPoint"/>
          </mxGeometry>
        </mxCell>
        <mxCell id="4f0MlS8uqhy01Tst4_fT-10" value="addTicketForViolation(violationID)" style="text;html=1;align=center;verticalAlign=middle;resizable=0;points=[];;labelBackgroundColor=#ffffff;" vertex="1" connectable="0" parent="4f0MlS8uqhy01Tst4_fT-8">
          <mxGeometry x="0.1644" y="-1" relative="1" as="geometry">
            <mxPoint x="-18.5" y="-10" as="offset"/>
          </mxGeometry>
        </mxCell>
        <mxCell id="4f0MlS8uqhy01Tst4_fT-17" value="" style="html=1;points=[];perimeter=orthogonalPerimeter;rounded=0;shadow=0;comic=0;labelBackgroundColor=none;strokeWidth=1;fontFamily=Verdana;fontSize=12;align=center;" vertex="1" parent="4f0MlS8uqhy01Tst4_fT-5">
          <mxGeometry x="45" y="90" width="10" height="20" as="geometry"/>
        </mxCell>
        <mxCell id="4f0MlS8uqhy01Tst4_fT-12" value="retriveOffenderData(plate)" style="html=1;verticalAlign=bottom;endArrow=block;labelBackgroundColor=none;fontFamily=Verdana;fontSize=12;edgeStyle=elbowEdgeStyle;elbow=vertical;" edge="1" parent="1">
          <mxGeometry x="0.0067" relative="1" as="geometry">
            <mxPoint x="677.5" y="270" as="sourcePoint"/>
            <Array as="points">
              <mxPoint x="702.5" y="270"/>
            </Array>
            <mxPoint x="840" y="270" as="targetPoint"/>
            <mxPoint as="offset"/>
          </mxGeometry>
        </mxCell>
        <mxCell id="4f0MlS8uqhy01Tst4_fT-13" value="" style="html=1;verticalAlign=bottom;endArrow=open;dashed=1;endSize=8;labelBackgroundColor=none;fontFamily=Verdana;fontSize=12;edgeStyle=elbowEdgeStyle;elbow=vertical;" edge="1" parent="1">
          <mxGeometry x="-0.375" y="-10" relative="1" as="geometry">
            <mxPoint x="680" y="334" as="targetPoint"/>
            <Array as="points">
              <mxPoint x="840" y="334"/>
              <mxPoint x="995" y="334"/>
            </Array>
            <mxPoint x="840" y="334" as="sourcePoint"/>
            <mxPoint as="offset"/>
          </mxGeometry>
        </mxCell>
        <mxCell id="4f0MlS8uqhy01Tst4_fT-14" value="sendOffenderData(data)" style="text;html=1;align=center;verticalAlign=middle;resizable=0;points=[];;autosize=1;" vertex="1" parent="1">
          <mxGeometry x="697" y="316" width="140" height="20" as="geometry"/>
        </mxCell>
        <mxCell id="4f0MlS8uqhy01Tst4_fT-15" value="" style="html=1;points=[];perimeter=orthogonalPerimeter;rounded=0;shadow=0;comic=0;labelBackgroundColor=none;strokeWidth=1;fontFamily=Verdana;fontSize=12;align=center;" vertex="1" parent="1">
          <mxGeometry x="850" y="283" width="10" height="40" as="geometry"/>
        </mxCell>
        <mxCell id="4f0MlS8uqhy01Tst4_fT-16" value="findOwnerPlate(plate)" style="text;html=1;align=center;verticalAlign=middle;resizable=0;points=[];;autosize=1;" vertex="1" parent="1">
          <mxGeometry x="874" y="280" width="130" height="20" as="geometry"/>
        </mxCell>
        <mxCell id="4f0MlS8uqhy01Tst4_fT-26" value="storeTicketDetails(violationID, offenderData)" style="html=1;verticalAlign=bottom;endArrow=block;labelBackgroundColor=none;fontFamily=Verdana;fontSize=12;edgeStyle=elbowEdgeStyle;elbow=vertical;" edge="1" parent="1">
          <mxGeometry x="0.0067" relative="1" as="geometry">
            <mxPoint x="677.5" y="445" as="sourcePoint"/>
            <Array as="points">
              <mxPoint x="702.5" y="445"/>
            </Array>
            <mxPoint x="1023" y="445" as="targetPoint"/>
            <mxPoint as="offset"/>
          </mxGeometry>
        </mxCell>
        <mxCell id="4f0MlS8uqhy01Tst4_fT-27" value="sendTicketDetails(ticketID)" style="html=1;verticalAlign=bottom;endArrow=open;dashed=1;endSize=8;labelBackgroundColor=none;fontFamily=Verdana;fontSize=12;edgeStyle=elbowEdgeStyle;elbow=vertical;" edge="1" parent="1">
          <mxGeometry relative="1" as="geometry">
            <mxPoint x="680" y="474" as="targetPoint"/>
            <Array as="points">
              <mxPoint x="965" y="474"/>
              <mxPoint x="995" y="474"/>
            </Array>
            <mxPoint x="1020" y="474" as="sourcePoint"/>
          </mxGeometry>
        </mxCell>
        <mxCell id="4f0MlS8uqhy01Tst4_fT-30" value="" style="html=1;verticalAlign=bottom;endArrow=block;labelBackgroundColor=none;fontFamily=Verdana;fontSize=12;edgeStyle=elbowEdgeStyle;elbow=vertical;" edge="1" parent="1">
          <mxGeometry x="0.0448" y="14" relative="1" as="geometry">
            <mxPoint x="677.5" y="514" as="sourcePoint"/>
            <Array as="points">
              <mxPoint x="702.5" y="514"/>
            </Array>
            <mxPoint x="1180" y="514" as="targetPoint"/>
            <mxPoint as="offset"/>
          </mxGeometry>
        </mxCell>
        <mxCell id="4f0MlS8uqhy01Tst4_fT-31" value="includeIntoStatistics(ticketID)" style="text;html=1;align=center;verticalAlign=middle;resizable=0;points=[];;autosize=1;" vertex="1" parent="1">
          <mxGeometry x="856" y="496" width="170" height="20" as="geometry"/>
        </mxCell>
        <mxCell id="4f0MlS8uqhy01Tst4_fT-32" value="updateStatistics(data)" style="html=1;verticalAlign=bottom;endArrow=open;dashed=1;endSize=8;labelBackgroundColor=none;fontFamily=Verdana;fontSize=12;edgeStyle=elbowEdgeStyle;elbow=vertical;" edge="1" parent="1">
          <mxGeometry relative="1" as="geometry">
            <mxPoint x="1040" y="547" as="targetPoint"/>
            <Array as="points"/>
            <mxPoint x="1180" y="547" as="sourcePoint"/>
            <mxPoint as="offset"/>
          </mxGeometry>
        </mxCell>
        <mxCell id="4f0MlS8uqhy01Tst4_fT-33" value="&lt;b&gt;Authority&lt;/b&gt;: Actor" style="shape=umlLifeline;perimeter=lifelinePerimeter;whiteSpace=wrap;html=1;container=1;collapsible=0;recursiveResize=0;outlineConnect=0;rounded=1;shadow=0;comic=0;labelBackgroundColor=none;strokeWidth=1;fontFamily=Verdana;fontSize=12;align=center;" vertex="1" parent="1">
          <mxGeometry x="1440" y="80" width="100" height="580" as="geometry"/>
        </mxCell>
        <mxCell id="4f0MlS8uqhy01Tst4_fT-43" value="" style="html=1;points=[];perimeter=orthogonalPerimeter;rounded=0;shadow=0;comic=0;labelBackgroundColor=none;strokeWidth=1;fontFamily=Verdana;fontSize=12;align=center;" vertex="1" parent="4f0MlS8uqhy01Tst4_fT-33">
          <mxGeometry x="45" y="500" width="10" height="18" as="geometry"/>
        </mxCell>
        <mxCell id="4f0MlS8uqhy01Tst4_fT-36" value="Notification Manager" style="shape=umlLifeline;perimeter=lifelinePerimeter;whiteSpace=wrap;html=1;container=1;collapsible=0;recursiveResize=0;outlineConnect=0;rounded=1;shadow=0;comic=0;labelBackgroundColor=none;strokeWidth=1;fontFamily=Verdana;fontSize=12;align=center;" vertex="1" parent="1">
          <mxGeometry x="1270" y="80" width="100" height="580" as="geometry"/>
        </mxCell>
        <mxCell id="4f0MlS8uqhy01Tst4_fT-42" value="" style="html=1;points=[];perimeter=orthogonalPerimeter;rounded=0;shadow=0;comic=0;labelBackgroundColor=none;strokeWidth=1;fontFamily=Verdana;fontSize=12;align=center;" vertex="1" parent="4f0MlS8uqhy01Tst4_fT-36">
          <mxGeometry x="45" y="500" width="10" height="18" as="geometry"/>
        </mxCell>
        <mxCell id="4f0MlS8uqhy01Tst4_fT-38" value="generateNotificationForTicket(ticketID)" style="html=1;verticalAlign=bottom;endArrow=block;labelBackgroundColor=none;fontFamily=Verdana;fontSize=12;edgeStyle=elbowEdgeStyle;elbow=vertical;" edge="1" parent="1">
          <mxGeometry x="0.0067" relative="1" as="geometry">
            <mxPoint x="677.5" y="590" as="sourcePoint"/>
            <Array as="points">
              <mxPoint x="702.5" y="590"/>
            </Array>
            <mxPoint x="1310" y="590" as="targetPoint"/>
            <mxPoint as="offset"/>
          </mxGeometry>
        </mxCell>
        <mxCell id="4f0MlS8uqhy01Tst4_fT-39" value="&lt;div&gt;generateNotificationFor&lt;/div&gt;&lt;div&gt;Ticket(ticketID)&lt;/div&gt;" style="html=1;verticalAlign=bottom;endArrow=block;labelBackgroundColor=none;fontFamily=Verdana;fontSize=12;edgeStyle=elbowEdgeStyle;elbow=vertical;" edge="1" parent="1">
          <mxGeometry x="0.0067" relative="1" as="geometry">
            <mxPoint x="1330" y="590" as="sourcePoint"/>
            <Array as="points">
              <mxPoint x="1365" y="590"/>
            </Array>
            <mxPoint x="1480" y="590" as="targetPoint"/>
            <mxPoint as="offset"/>
          </mxGeometry>
        </mxCell>
      </root>
    </mxGraphModel>
  </diagram>
</mxfile>
